<svg width="262" height="241" viewBox="0 0 262 241" fill="none" xmlns="http://www.w3.org/2000/svg">
<path d="M138.409 188.107C137.341 176.263 134.83 154.835 126.156 132.193C128.508 147.443 129.895 165.017 125.708 178.95C131.496 182.588 132.618 184.472 138.409 188.107ZM89.5931 47.6412C90.2615 50.8283 90.9617 53.024 91.34 56.1497C92.1345 62.7048 91.4203 64.0589 92.2875 65.7961C93.2602 67.7421 96.2207 70.1677 105.508 80.8827C105.078 76.3494 107.315 72.6073 105.653 65.5493C104.242 59.5395 104.769 49.622 103.719 45.3264C103.564 44.9875 100.807 42.5042 98.403 40.7954C95.0236 38.3942 92.1256 35.8185 88.9283 33.6195C86.7975 38.1905 87.7054 43.968 89.5931 47.6412ZM134.237 138.268C138.325 151.362 137.054 161.054 138.043 168.594C145.553 150.037 153.738 128.251 155.918 110.246C157.744 95.1846 152.894 83.0051 143.79 70.5818C123.626 43.0608 71.118 6.11595 63.854 0C54.8972 24.8848 48.1172 70.7869 55.9714 91.4231C65.8864 117.489 69.9497 119.415 82.7725 133.951C98.9502 152.293 107.988 158.712 123.503 175.838C124.917 169.804 125.246 163.016 124.899 156.079C124.481 147.709 120.666 118.333 115.721 111.752C113.683 109.039 103.278 102.775 99.6641 101.305C90.636 97.6298 79.8398 96.6775 72.0552 89.1141C70.8927 87.9835 69.8118 86.7051 68.8339 85.2464C69.3887 84.7793 69.7633 84.7672 69.9356 84.7565C70.2585 84.8859 70.9849 85.7765 73.4936 87.9466C75.2572 89.467 77.6686 91.2116 79.6565 92.4299C90.3671 98.9821 90.7147 92.4335 115.157 108.995C114.335 103.857 113.137 98.9847 109.614 95.8745C105.114 91.8947 100.568 88.4479 94.8294 86.0926C76.7381 78.663 77.0449 84.7738 64.3401 76.4C63.3425 82.3975 69.6799 95.1103 71.4573 100.405C71.9724 101.932 72.3817 102.283 72.4591 102.598C72.4117 102.851 72.231 103.409 71.3903 104.091C66.428 98.8569 63.2836 86.2121 61.7117 76.0779C59.555 62.1813 60.4297 47.074 61.2855 33.0958C61.4898 28.2662 65.4619 12.7199 66.4526 10.4421C71.1461 14.2854 72.6919 18.204 76.609 21.7592L99.4678 38.3339C105.539 42.7365 108.964 46.2005 114.6 51.5877C128.752 69.012 134.698 70.1398 142.488 95.6203C145.8 106.454 147.692 126.53 144.403 137.618C143.448 140.839 142.008 143.306 139.862 143.751C140.169 141.452 142.327 138.624 142.859 135.803C145.884 119.882 142.329 94.2506 134.181 80.663C133.652 86.467 130.19 99.6573 126.534 106.863C125.37 109.161 124.177 110.851 123.061 111.497C123.026 110.033 123.448 108.157 124.142 106.025C127.195 96.6309 134.172 85.0221 131.803 75.7325C128.494 69.7667 112.234 50.4102 105.457 47.0732C105.73 50.3672 105.717 54.4809 105.955 57.9379C106.13 60.4855 106.852 62.8295 107.139 65.2446C107.583 68.9457 106.941 82.9919 107.29 83.8048C108.625 86.9132 111.119 89.4354 114.163 97.2981C120.088 112.571 129.497 123.092 134.237 138.268ZM63.0895 55.5212C63.5605 56.5176 64.6855 57.2258 66.4927 58.0982C67.2445 58.463 67.2439 59.6662 66.608 59.801L62.8484 58.3793C63.1466 61.1476 63.1906 71.7603 63.8502 73.4127C65.4667 76.0606 74.1348 78.8843 78.4876 79.6783C93.5306 82.419 97.261 84.4982 110.428 94.4C109.064 89.3405 101.676 78.6281 97.409 74.7089C95.5437 72.9977 93.7361 71.7015 91.9386 70.6651C87.2862 67.9852 82.6798 67.0349 77.2143 65.0346C75.9808 64.5857 73.5082 63.3743 73.2863 63.1148C72.9992 62.7815 72.6519 62.0213 73.4184 61.342C78.7016 64.0284 84.3683 66.3985 90.2704 67.6164C89.6214 63.724 80.7171 53.3226 78.0571 48.7028C76.4227 46.0742 74.2574 40.7567 72.4717 35.4821C71.4197 32.3838 70.5006 29.2953 69.8952 26.7746C69.4424 24.8861 69.1616 23.3173 69.1382 22.2999C70.2183 22.8959 71.0615 24.2609 71.7306 25.9144C73.0007 29.0424 73.6659 33.2089 74.1911 35.1758C75.2989 39.3129 76.5428 43.9268 79.7928 48.3402L89.5278 62.4125C90.0437 60.205 89.3963 57.6618 89.2726 55.3904C89.1044 52.3615 89.1488 50.5414 87.6926 47.8852C87.2923 45.9641 86.4339 42.8225 86.2644 40.6915C86.0114 37.5087 86.9723 35.8105 86.6236 32.4512C78.4553 25.6842 73.4859 21.9386 67.6176 13.9814C66.5788 16.2069 64.2191 29.5584 63.5656 33.2562C62.2545 40.7213 63.236 48.2413 63.0895 55.5212Z" fill="#EBECEC"/>
<path d="M135.829 159.777L138.95 149.979L141.03 147.715C141.763 147.02 142.496 146.315 143.239 145.599C152.417 136.774 162.335 126.566 168.199 116.92C173.504 108.197 173.912 99.3805 171.788 89.2346C167.073 66.7576 145.154 29.5102 142.395 23.7418C129.99 36.5023 113.08 62.7552 112.159 77.5888C110.992 96.324 112.952 98.6333 116.769 111.111C121.232 125.686 124.882 132.265 129.058 144.956L130.094 148.11L130.58 150.63C131.351 151.794 131.904 152.745 132.368 153.602C133.442 155.58 134.059 157.102 135.829 159.777Z" fill="#FEFEFE"/>
<path d="M135.829 159.777C138.465 152.22 142.88 138.388 143.854 122.098C141.055 132.099 137.023 143.257 130.588 150.634C133.125 154.472 133.288 155.938 135.829 159.777ZM144.935 60.0999C144.459 62.2399 144.278 63.7843 143.643 65.8025C142.308 70.0416 141.492 70.6732 141.546 71.9797C141.6 73.4433 142.741 75.7541 145.457 84.9034C146.453 82.003 148.864 80.33 149.808 75.5473C150.61 71.4698 153.691 65.5365 154.243 62.6116C154.241 62.3646 153.242 60.0731 152.245 58.3594C150.84 55.9471 149.782 53.5633 148.431 51.325C145.851 53.5314 144.798 57.3255 144.935 60.0999ZM147.121 128.065C145.987 137.228 142.516 142.813 141.026 147.713C150.787 138.427 161.857 127.347 168.195 116.918C173.5 108.195 173.908 99.3784 171.784 89.2325C167.073 66.7576 145.15 29.5081 142.395 23.7418C129.99 36.5023 113.08 62.7552 112.159 77.5888C110.992 96.324 112.952 98.6333 116.769 111.111C121.588 126.851 125.345 133.301 130.098 148.112C132.641 144.806 134.729 140.737 136.445 136.386C138.514 131.138 144.337 112.071 143.137 106.664C142.642 104.433 138.004 97.7014 136.197 95.7944C131.685 91.0292 125.33 87.4429 122.661 80.6447C122.26 79.6301 121.958 78.5447 121.759 77.38C122.228 77.2497 122.464 77.3426 122.569 77.3848C122.73 77.5549 122.93 78.3009 123.863 80.3284C124.52 81.75 125.515 83.4888 126.396 84.7876C131.142 91.7832 133.175 87.8646 143.555 104.815C144.481 101.439 145.097 98.1165 143.805 95.2315C142.149 91.5393 140.322 88.1648 137.462 85.1238C128.439 75.5369 126.932 79.3693 121.465 70.7049C119.186 74.1014 119.538 83.6574 119.157 87.3972C119.046 88.4792 119.202 88.8042 119.162 89.0197C119.063 89.1638 118.796 89.4539 118.09 89.6379C116.504 85.0478 118.088 76.4257 119.942 69.7745C122.484 60.6553 127.212 51.6417 131.622 43.3117C133.091 40.4087 139.845 31.9817 141.082 30.8595C142.891 34.5187 142.748 37.3508 144.16 40.6214L153.578 57.1391C156.076 61.5228 157.213 64.602 159.173 69.4696C163.008 84.0846 166.339 86.43 164.032 104.213C163.05 111.776 158.632 124.605 153.537 130.487C152.058 132.195 150.49 133.307 149.049 132.984C149.878 131.662 151.982 130.526 153.092 128.947C159.371 120.029 164.315 103.328 163.096 92.7374C161.161 96.1497 155.374 103.271 151.13 106.668C149.776 107.752 148.576 108.457 147.715 108.542C148.099 107.635 148.881 106.604 149.9 105.487C154.382 100.58 161.884 95.4026 163.017 89.0484C162.647 84.4686 158.058 68.0842 154.832 64.1565C154.084 66.2538 152.933 68.7664 152.117 70.9556C151.515 72.5656 151.309 74.202 150.816 75.7621C150.061 78.1546 145.762 86.5876 145.751 87.18C145.704 89.4576 146.532 91.6941 146.212 97.3623C145.589 108.383 148.433 117.444 147.121 128.065ZM126.504 57.5598C126.518 58.301 127.012 59.0479 127.873 60.085C128.232 60.5174 127.896 61.2553 127.472 61.1618L125.56 59.244C124.972 61.0237 122.053 67.5415 121.995 68.7388C122.25 70.8122 126.779 74.9515 129.225 76.6512C137.686 82.5161 139.389 84.8267 144.716 94.5583C145.286 91.0766 143.734 82.4566 142.21 78.8675C141.543 77.2993 140.796 76.0051 139.979 74.8698C137.868 71.934 135.311 70.0685 132.517 67.323C131.887 66.7012 130.709 65.2737 130.643 65.0516C130.56 64.7687 130.556 64.2055 131.216 63.9984C133.707 67.1155 136.521 70.1437 139.804 72.5329C140.485 69.9664 137.923 61.1149 137.574 57.5422C137.305 55.4771 137.454 51.6151 137.824 47.8857C138.043 45.6945 138.335 43.5454 138.663 41.8341C138.91 40.5536 139.173 39.512 139.443 38.8827C139.941 39.548 140.078 40.6182 140.028 41.8198C139.937 44.0909 139.184 46.8309 138.964 48.1826C138.496 51.024 137.975 54.2002 138.74 57.8099L140.795 69.1426C141.725 67.9336 142.036 66.1928 142.587 64.7669C143.326 62.8642 143.858 61.7585 143.703 59.7252C143.992 58.4345 144.339 56.2709 144.827 54.9181C145.558 52.8961 146.613 52.1229 147.339 49.9669C144.211 43.5462 142.207 39.8675 140.822 33.3604C139.567 34.4365 134.413 41.9665 132.984 44.051C130.104 48.2557 128.616 53.1412 126.504 57.5598Z" fill="#AE5A25"/>
<path d="M118.983 56.9606C120.012 59.1831 120.993 61.3657 121.928 63.5147C124.562 56.5123 128.171 49.6555 131.58 43.2063C133.044 40.3012 139.803 31.8764 141.04 30.7542L141.056 30.7835L142.397 23.737L142.347 23.6385C134.664 31.5452 125.25 44.6235 118.983 56.9606ZM122.886 65.7328C124.124 68.6427 125.276 71.4833 126.345 74.2712C127.366 75.1895 128.382 76.0009 129.18 76.55C137.642 82.4149 139.349 84.7276 144.671 94.4571C145.242 90.9754 143.69 82.3554 142.165 78.7663C141.498 77.1981 140.751 75.9039 139.934 74.7686C137.823 71.8328 135.267 69.9673 132.473 67.2218C131.843 66.6 130.665 65.1725 130.599 64.9504C130.516 64.6675 130.511 64.1043 131.172 63.8972C133.663 67.0143 136.477 70.0425 139.76 72.4317C140.441 69.8652 137.878 61.0137 137.53 57.441C137.261 55.3759 137.41 51.5139 137.78 47.7845C137.999 45.5933 138.291 43.4442 138.619 41.7328C138.866 40.4524 139.129 39.4107 139.399 38.7815C139.436 38.8319 139.476 38.8885 139.509 38.9473L140.549 33.4846C138.992 35.1165 134.293 41.9739 132.94 43.9498C130.056 48.1524 128.57 53.0337 126.46 57.4586C126.474 58.1998 126.967 58.9467 127.829 59.9837C128.187 60.4162 127.852 61.1541 127.427 61.0606L125.516 59.1428C125.135 60.2825 123.808 63.3514 122.886 65.7328ZM127.38 77.0318C129.032 81.5132 130.45 85.8348 131.637 90.0194C134.212 92.0148 137.431 94.7805 143.509 104.707C144.435 101.331 145.051 98.009 143.758 95.124C142.102 91.4318 140.275 88.0573 137.415 85.0163C132.413 79.7052 129.72 78.5155 127.38 77.0318ZM132.183 91.9934C137.655 112.325 137.546 129.439 131.623 145.782C133.473 142.945 135.05 139.704 136.397 136.283C138.464 131.039 144.289 111.968 143.088 106.561C142.593 104.329 137.955 97.598 136.149 95.6911C134.926 94.4037 133.567 93.1996 132.183 91.9934Z" fill="#975026"/>
<path fill-rule="evenodd" clip-rule="evenodd" d="M152.97 43.5691L149.982 50.8069L153.531 57.0364C156.028 61.4202 157.165 64.4993 159.125 69.367C160.01 72.7279 160.866 75.4397 161.626 77.8414L166.363 72.2717C162.508 62.5429 157.466 52.2365 152.97 43.5691ZM149.207 52.6759L141.55 71.2115C141.504 71.429 141.486 71.6404 141.494 71.8749C141.55 73.3343 142.689 75.6493 145.405 84.7986C146.401 81.8982 148.812 80.2252 149.755 75.4425C150.558 71.365 153.639 65.4317 154.191 62.5068C154.189 62.2598 153.19 59.9683 152.193 58.2546C151.088 56.3604 150.196 54.4796 149.207 52.6759ZM146.212 95.9785L160.724 78.9019C159.021 72.9319 156.663 66.3588 154.776 64.0601C154.028 66.1574 152.876 68.67 152.061 70.8591C151.459 72.4691 151.253 74.1056 150.76 75.6657C150.004 78.0582 145.705 86.4912 145.695 87.0836C145.65 89.179 146.349 91.2456 146.212 95.9785Z" fill="#D06723"/>
<path fill-rule="evenodd" clip-rule="evenodd" d="M152.97 43.569L149.982 50.8067L144.123 40.5186C142.716 37.2564 142.851 34.4306 141.057 30.784L142.397 23.7375C143.601 26.2266 147.94 33.8718 152.97 43.569ZM149.207 52.6758L141.55 71.2113C141.755 70.2239 142.503 69.1754 143.595 65.6997C144.23 63.6815 144.411 62.1371 144.887 59.997C144.75 57.2227 145.803 53.4286 148.379 51.2201C148.666 51.7005 148.941 52.185 149.207 52.6758ZM139.506 38.9457L140.545 33.483C140.634 33.3911 140.707 33.3181 140.772 33.2618C142.157 39.7688 144.165 43.4496 147.288 49.8683C146.57 52.0222 145.508 52.7974 144.777 54.8194C144.288 56.1723 143.942 58.3358 143.653 59.6266C143.808 61.6599 143.276 62.7656 142.537 64.6682C141.984 66.0983 141.675 67.8349 140.745 69.044L138.692 57.7071C137.925 54.1016 138.446 50.9254 138.916 48.0798C139.143 46.726 139.889 43.9881 139.98 41.7169C140.028 40.6138 139.916 39.619 139.506 38.9457Z" fill="#EF7F1A"/>
<path fill-rule="evenodd" clip-rule="evenodd" d="M118.984 56.961C120.013 59.1835 120.993 61.3661 121.928 63.5151C121.162 65.5558 120.477 67.6114 119.9 69.6695C118.048 76.3165 116.462 84.9428 118.048 89.5329C118.755 89.3489 119.021 89.0588 119.12 88.9147C119.161 88.6992 119.007 88.37 119.115 87.2922C119.496 83.5523 119.145 73.9964 121.423 70.5999C123.858 74.4643 125.507 75.841 127.385 77.0343C129.037 81.5157 130.454 85.8372 131.642 90.0219C129.821 88.6111 128.319 87.5866 126.357 84.6889C125.476 83.3901 124.481 81.6513 123.824 80.2297C122.887 78.2001 122.692 77.452 122.529 77.2861C122.419 77.246 122.189 77.151 121.719 77.2813C121.912 78.448 122.221 79.5314 122.621 80.546C124.566 85.5057 128.47 88.7532 132.192 91.9979C135.456 104.118 136.734 115.09 135.983 125.438C129.707 116.029 118.327 100.929 112.121 93.5955C111.688 89.6917 111.664 84.8619 112.122 77.4859C112.463 71.8388 115.132 64.5392 118.984 56.961ZM122.886 65.7332C124.124 68.6431 125.279 71.4899 126.346 74.2716C124.235 72.3741 122.12 70.0391 121.949 68.6422C121.967 68.211 122.358 67.0818 122.886 65.7332Z" fill="#EF7F1A"/>
<path fill-rule="evenodd" clip-rule="evenodd" d="M135.973 125.427C129.696 116.019 118.32 100.92 112.112 93.5913C112.779 99.6103 114.407 103.441 116.727 111.006C121.546 126.746 125.304 133.196 130.057 148.007C130.603 147.297 131.125 146.553 131.63 145.78C134.016 139.177 135.46 132.445 135.973 125.427Z" fill="#D06723"/>
<path d="M181.3 122.472L193.634 130.896L151.514 192.565L146.194 155.539L181.3 122.472Z" fill="white"/>
<path d="M162.432 170.617C152.345 185.264 146.863 200.106 144.06 208.365C148.817 206.771 149.94 205.621 154.693 204.026C154.111 193.374 158.13 181.086 162.432 170.617Z" fill="#A67629"/>
<path fill-rule="evenodd" clip-rule="evenodd" d="M192.779 130.156C191.976 131.943 191.279 133.133 190.655 134.911C187.874 142.821 192.079 137.948 179.155 147.557L179.523 143.069C179.703 140.872 180.433 139.93 181.311 137.792C181.725 136.803 184.679 127.166 184.725 127.111C184.941 126.868 186.767 125.744 188.503 125.002C190.798 124.03 192.818 122.904 194.978 122.029C195.63 124.981 194.359 128.244 192.779 130.156ZM154.903 177.448C150.814 184.585 150.301 190.425 148.744 194.711C146.748 182.875 144.775 169.064 145.834 158.232C146.712 149.181 151.134 142.671 158.071 136.583C173.439 123.072 208.972 108.237 214.026 105.597C216.049 121.33 214.075 149.077 206.811 160.147C197.633 174.128 195 174.723 185.606 181.579C173.759 190.231 167.631 192.812 156.334 200.832C156.289 197.111 156.976 193.098 158.076 189.074C159.401 184.23 165.437 167.517 169.188 164.31C170.736 162.983 177.645 160.667 179.942 160.266C184.134 159.55 188.761 159.753 193.051 158.639C194.627 158.226 196.155 157.634 197.598 156.76C198.461 156.241 199.283 155.606 200.078 154.851C200.251 154.635 199.707 154.379 199.382 154.531C199.18 154.626 198.716 154.903 197.005 155.831C195.773 156.49 194.134 157.211 192.819 157.664C187.582 159.469 186.542 157.848 179.797 159.47C177.382 160.055 174.223 161.052 169.885 162.781C171.031 159.873 172.366 157.174 174.828 155.818C177.975 154.07 181.091 152.645 184.751 152.008C190.327 151.037 192.989 151.357 195.202 151.583C197.579 151.832 199.445 151.957 203.85 150.27C203.657 153.904 198.302 160.54 196.567 163.403C196.085 164.194 195.705 164.377 195.695 164.576C195.663 164.86 195.725 165.229 196.13 165.572C196.625 165.232 197.126 164.799 197.62 164.303C201.785 160.069 205.586 150.622 207.134 145.519C209.177 138.865 210.148 132.164 211.223 125.31C211.724 122.456 211.417 112.836 211.133 111.372C207.884 113.012 206.473 115.113 203.721 116.686L188.083 123.481C184.018 125.246 181.539 126.856 177.608 129.239C167.07 137.609 163.441 137.505 155.578 151.411C153.498 155.084 151.546 160.716 150.389 164.916C149.991 166.369 148.899 171.471 149.059 175.374C149.155 177.58 149.636 179.393 150.88 179.941C151.002 178.558 150.099 176.617 150.159 174.903C150.247 172.061 150.763 168.797 151.625 165.441C153.711 157.327 157.753 148.618 162.375 143.744C161.859 147.802 162.378 158.299 164.153 162.127C164.372 162.611 164.621 162.994 164.888 163.24C164.981 162.87 165.028 162.437 165.046 161.962C165.244 156.53 161.075 144.921 164.389 141.163C167.094 138.095 179.134 128.869 183.526 127.785C182.941 129.679 182.417 132.086 181.83 134.085C181.465 135.33 180.892 136.426 180.429 137.575C179.931 138.814 178.921 141.662 178.712 142.984C178.383 145.128 178.682 147.694 177.695 149.063C176.517 150.706 174.73 151.868 171.923 156.077C166.517 164.228 159.642 169.175 154.903 177.448ZM207.33 138.304C207.141 138.512 206.351 138.941 205.361 139.126C204.906 139.204 204.602 139.53 204.443 139.976L207.046 139.899C206.513 141.489 205.108 147.688 204.514 148.57C202.542 151.463 197.779 150.448 195.127 150.346C190.381 150.172 187.439 150.288 184.457 151.003C181.68 151.673 178.863 152.866 174.519 154.844C175.966 152.054 181.685 146.737 184.692 144.998C189.402 142.269 193.409 142.789 198.209 142.137C199.442 141.973 199.773 142.028 199.788 141.996C199.865 141.879 199.962 141.52 199.769 141.261C199.152 141.057 198.555 140.95 197.979 140.901C195.006 140.663 192.511 142.148 189.79 141.77C190.675 139.578 197.238 134.634 199.394 132.277C200.673 130.964 202.595 128.192 204.307 125.376C205.613 123.234 206.79 121.058 207.475 119.494C207.733 118.884 207.934 118.372 208.031 117.974C207.535 118.119 207.044 118.509 206.598 119.028C205.194 120.657 204.059 123.6 203.41 124.852C202.231 127.133 200.906 129.673 198.42 131.831L190.893 138.813C190.879 137.45 191.581 136.05 191.949 134.738C192.442 132.993 192.656 131.917 193.849 130.542C194.337 129.463 195.242 127.745 195.615 126.523C196.18 124.687 195.834 123.57 196.477 121.656C202.142 118.753 205.536 117.193 210.001 113.298C210.326 114.735 209.976 122.863 209.879 125.11C209.817 126.329 207.853 137.707 207.33 138.304Z" fill="url(#paint0_linear)"/>
<defs>
<linearGradient id="paint0_linear" x1="172.023" y1="197.585" x2="131.155" y2="130.058" gradientUnits="userSpaceOnUse">
<stop stop-color="#865513"/>
<stop offset="0.2588" stop-color="#C2923D"/>
<stop offset="0.4392" stop-color="#FFF8AD"/>
<stop offset="1" stop-color="#AA681A"/>
</linearGradient>
</defs>
</svg>
