<svg width="223" height="194" viewBox="0 0 223 194" fill="none" xmlns="http://www.w3.org/2000/svg">
<path d="M91.7914 162.681L90.8416 149.775L92.2091 146.155C92.7394 145 93.2647 143.832 93.7975 142.648C100.378 128.038 107.174 111.465 109.5 97.4488C111.605 84.7741 107.948 74.2858 100.709 63.4325C84.6625 39.3926 41.5978 6.16907 35.6708 0.72577C27.1669 21.4456 19.727 60.0361 25.6079 77.7919C33.0293 100.22 36.4015 101.998 46.71 114.781C58.7569 129.711 66.1051 135.683 76.9331 148.546L79.6224 151.744L81.3713 154.459C82.8175 155.458 83.9097 156.308 84.8538 157.092C87.0352 158.899 88.4691 160.387 91.7914 162.681Z" fill="#FEFEFE"/>
<path d="M91.7914 162.681C91.326 152.619 89.9966 134.394 83.4945 114.912C84.9157 127.906 85.4392 142.827 81.383 154.46C86.1456 157.752 87.023 159.388 91.7914 162.681ZM55.6859 41.9976C56.1334 44.7202 56.6462 46.6088 56.8512 49.2634C57.2797 54.8404 56.6223 55.9609 57.2983 57.4614C58.0473 59.1454 60.4643 61.3089 67.9268 70.7208C67.7296 66.8665 69.7609 63.782 68.62 57.754C67.6456 52.6153 68.4612 44.2414 67.7343 40.5666C67.6169 40.2787 65.3753 38.071 63.4072 36.5371C60.635 34.3787 58.282 32.0905 55.6543 30.1101C53.6754 33.8968 54.2246 38.8218 55.6859 41.9976ZM90.1079 120.349C93.0808 131.583 91.6458 139.733 92.2032 146.154C99.2496 130.732 106.982 112.601 109.494 97.4483C111.599 84.7736 107.942 74.2853 100.703 63.432C84.6625 39.3926 41.5919 6.16857 35.6708 0.72577C27.1669 21.4456 19.727 60.0361 25.6079 77.7919C33.0293 100.22 36.4015 101.998 46.71 114.781C59.7193 130.905 67.132 136.676 79.6282 151.744C81.0471 146.692 81.5779 140.96 81.5424 135.074C81.4981 127.975 79.3577 102.976 75.4201 97.2234C73.7957 94.8496 65.2228 89.1627 62.2186 87.7827C54.7141 84.3334 45.611 83.1245 39.3054 76.4367C38.3617 75.4396 37.5 74.3136 36.7212 73.0468C37.2083 72.6745 37.5278 72.6722 37.6697 72.6725C37.9371 72.7958 38.5211 73.573 40.5618 75.5033C41.9955 76.8556 43.9728 78.4199 45.611 79.5235C54.4339 85.4684 54.9711 79.9384 75.0418 94.8673C74.5404 90.4904 73.702 86.3212 70.8396 83.5579C67.174 80.0225 63.458 76.938 58.6918 74.7276C43.6589 67.7618 43.6953 72.9445 33.248 65.3887C32.1794 70.4239 37.0706 81.4196 38.3794 85.966C38.7579 87.2814 39.0924 87.5879 39.1462 87.8586C39.0983 88.0732 38.9227 88.5372 38.1842 89.0832C34.1793 84.4662 31.9864 73.6536 31.0329 65.0163C29.7262 53.1736 31.0213 40.4297 32.265 28.6333C32.6192 24.5541 36.5563 11.545 37.4746 9.65445C41.3034 13.0797 42.4639 16.4545 45.6474 19.6118L64.3923 34.4866C69.3649 38.4353 72.1367 41.4983 76.7083 46.2641C88.0402 61.5349 93.0307 62.7119 98.6743 84.5628C101.074 93.8557 101.929 110.91 98.7383 120.169C97.811 122.858 96.5021 124.892 94.6672 125.191C95.0156 123.257 96.9397 120.944 97.4963 118.579C100.647 105.219 98.5905 83.3967 92.2009 71.599C91.5407 76.4917 88.1214 87.5228 84.7568 93.4795C83.6839 95.3805 82.6136 96.7674 81.6482 97.2703C81.6713 96.0306 82.1011 94.459 82.7677 92.677C85.7011 84.8446 92.0344 75.2803 90.3778 67.328C87.7982 62.1528 74.756 45.1691 69.1471 42.0945C69.2568 44.8947 69.0903 48.3691 69.1645 51.3082C69.2164 53.4708 69.7426 55.4788 69.8984 57.532C70.1381 60.6804 69.0718 72.5451 69.3376 73.2419C70.3502 75.9241 72.3659 78.1479 74.6496 84.918C79.0897 98.0807 86.6607 107.33 90.1079 120.349ZM32.9689 47.6737C33.3331 48.5326 34.26 49.1734 35.752 49.9808C36.3737 50.3177 36.3281 51.3367 35.7882 51.4266L32.6568 50.0831C32.8046 52.4372 32.4517 61.4183 32.9449 62.844C34.2147 65.1461 41.4453 67.8566 45.0988 68.6948C57.7309 71.5768 60.803 73.4769 71.5877 82.3446C70.6214 78.0108 64.7669 68.6712 61.3032 65.1944C59.7892 63.6756 58.3096 62.5145 56.8232 61.5716C52.9811 59.1327 49.1209 58.1526 44.5703 56.2563C43.5428 55.8256 41.4975 54.7109 41.316 54.4825C41.0866 54.1909 40.8174 53.5353 41.4912 52.9838C45.8626 55.4561 50.5691 57.6732 55.5237 58.924C55.1151 55.6075 47.972 46.4713 45.89 42.462C44.607 40.1765 42.9699 35.5962 41.6538 31.0669C40.8818 28.4053 40.2149 25.7585 39.7956 23.6059C39.4838 21.9946 39.3026 20.6547 39.3229 19.7931C40.2166 20.3366 40.8782 21.5224 41.3831 22.9491C42.3414 25.6444 42.7476 29.1973 43.1244 30.8791C43.9102 34.417 44.7907 38.371 47.3764 42.2282L55.0914 54.4998C55.6099 52.652 55.1573 50.4729 55.1324 48.5491C55.1034 45.9804 55.2053 44.4399 54.0715 42.1376C53.8038 40.4947 53.1938 37.8055 53.1295 35.9965C53.0352 33.2922 53.9055 31.8942 53.7415 29.0362C47.0784 23.0038 43.0132 19.647 38.3442 12.6969C37.3824 14.5424 34.8938 25.7535 34.203 28.8579C32.811 35.119 33.364 41.5226 32.9689 47.6737Z" fill="#AE5A25"/>
<path d="M23.904 50.5C26.1478 52.6133 28.3168 54.7024 30.4164 56.7738C30.209 47.3606 31.2088 37.6602 32.1658 28.5297C32.5141 24.45 36.4571 11.4414 37.3753 9.55082L37.4086 9.57731L35.6697 0.719215L35.5652 0.627512C30.3006 13.4642 25.4384 33.1527 23.904 50.5ZM32.575 58.9153C35.3855 61.7333 38.0634 64.5103 40.619 67.2652C42.2417 67.859 43.8097 68.3299 44.9991 68.597C57.6312 71.479 60.7091 73.3797 71.488 82.2469C70.5217 77.9131 64.6672 68.5735 61.2035 65.0966C59.6894 63.5778 58.2098 62.4167 56.7234 61.4738C52.8814 59.0349 49.0212 58.0549 44.4706 56.1586C43.443 55.7279 41.3977 54.6131 41.2162 54.3848C40.9869 54.0932 40.7176 53.4375 41.3915 52.886C45.7628 55.3583 50.4694 57.5754 55.424 58.8263C55.0153 55.5098 47.8722 46.3735 45.7903 42.3642C44.5072 40.0788 42.8702 35.4984 41.554 30.9692C40.782 28.3075 40.1152 25.6607 39.6958 23.5081C39.384 21.8969 39.2028 20.5569 39.2232 19.6954C39.2906 19.7366 39.3634 19.7842 39.4298 19.8372L38.0827 12.9697C37.0298 15.6056 34.7565 25.8181 34.1032 28.7602C32.7054 35.0208 33.2589 41.4184 32.8692 47.5759C33.2334 48.4348 34.1602 49.0757 35.6523 49.883C36.2739 50.2199 36.2283 51.239 35.6885 51.3289L32.557 49.9854C32.6469 51.4949 32.5361 55.7013 32.575 58.9153ZM43.1228 70.0037C47.1531 74.4632 50.8351 78.8456 54.1845 83.176C58.1271 84.299 63.1835 86.0198 74.9367 94.7632C74.4353 90.3863 73.5969 86.2171 70.7345 83.4538C67.0688 79.9183 63.3529 76.8338 58.5866 74.6235C50.2537 70.7663 46.5512 70.6394 43.1228 70.0037ZM55.7479 85.2252C71.6721 106.405 79.5695 126.444 80.3161 148.308C81.1461 144.128 81.4675 139.602 81.4368 134.976C81.392 127.882 79.252 102.878 75.3145 97.1251C73.6901 94.7514 65.1172 89.0644 62.113 87.6845C60.0816 86.7542 57.9299 85.9851 55.7479 85.2252Z" fill="#975026"/>
<path fill-rule="evenodd" clip-rule="evenodd" d="M57.3182 18.9229L57.2218 28.7772L64.2874 34.3887C69.26 38.3374 72.0318 41.4004 76.6035 46.1662C79.2129 49.6766 81.4837 52.4425 83.4979 54.891L86.4189 46.1647C77.3544 36.6101 66.6325 26.9377 57.3182 18.9229ZM57.1936 31.3233L56.9426 56.5615C56.99 56.8376 57.0687 57.0926 57.1876 57.3629C57.9371 59.0411 60.3535 61.2105 67.816 70.6224C67.6189 66.7681 69.6502 63.6836 68.5093 57.6556C67.5349 52.5169 68.3504 44.143 67.6235 40.4682C67.5062 40.1802 65.2645 37.9726 63.2964 36.4386C61.1173 34.7448 59.1938 32.9664 57.1936 31.3233ZM74.0004 83.3013L82.9422 56.5523C78.1537 50.3784 72.317 43.8076 69.0353 42.0078C69.1451 44.808 68.9785 48.2824 69.0528 51.2215C69.1046 53.3841 69.6309 55.3921 69.7867 57.4453C70.0264 60.5937 68.9601 72.4584 69.2258 73.1552C70.1562 75.6234 71.9412 77.7093 74.0004 83.3013Z" fill="#D06723"/>
<path fill-rule="evenodd" clip-rule="evenodd" d="M57.3181 18.9228L57.2217 28.7772L45.5547 19.5089C42.3824 16.3585 41.2151 12.9949 37.4092 9.57758L35.6704 0.719482C38.2435 3.0619 46.8966 9.95601 57.3181 18.9228ZM57.1935 31.3232L56.9425 56.5614C56.7181 55.3124 57.1009 53.7368 56.7462 49.1655C56.5413 46.5108 56.0284 44.6222 55.5809 41.8996C54.1196 38.7238 53.5704 33.7988 55.5435 30.0116C56.1043 30.4379 56.6524 30.8749 57.1935 31.3232ZM39.4246 19.837L38.0775 12.9695C38.1375 12.8209 38.1891 12.7011 38.2387 12.6048C42.9077 19.5549 46.9788 22.9122 53.6361 28.944C53.8064 31.7968 52.9298 33.2001 53.0241 35.9044C53.0884 37.7133 53.6984 40.4025 53.9661 42.0455C55.0999 44.3478 54.9979 45.8883 55.027 48.4569C55.0514 50.3866 55.5044 52.5598 54.986 54.4077L47.2714 42.1302C44.6852 38.2789 43.8048 34.3249 43.0194 30.7811C42.6491 29.0939 42.2365 25.5464 41.2782 22.8511C40.8165 21.5405 40.2195 20.4311 39.4246 19.837Z" fill="#EF7F1A"/>
<path fill-rule="evenodd" clip-rule="evenodd" d="M23.9047 50.5003C26.1485 52.6136 28.3175 54.7027 30.4171 56.7741C30.4785 59.517 30.6423 62.239 30.9343 64.9129C31.8884 73.5444 34.0808 84.3629 38.0857 88.9798C38.8241 88.4338 38.9997 87.9699 39.0476 87.7552C38.9939 87.4845 38.6598 87.1722 38.2809 85.8627C36.9721 81.3163 32.0809 70.3206 33.1494 65.2854C37.8046 68.657 40.3764 69.4915 43.1294 70.0045C47.1596 74.4639 50.8417 78.8464 54.1911 83.1767C51.403 82.3829 49.1686 81.8905 45.5179 79.4266C43.8796 78.3229 41.9023 76.7586 40.4686 75.4063C38.4221 73.4755 37.8444 72.693 37.5765 72.5755C37.4283 72.5806 37.1151 72.5775 36.6281 72.9498C37.4005 74.222 38.2686 75.3427 39.2123 76.3397C43.8096 81.2201 49.892 83.1822 55.7604 85.2265C65.2546 97.851 71.8924 110.066 75.8682 122.503C64.1263 114.458 43.7543 102.159 33.0677 96.5041C30.7316 92.1479 28.4392 86.5183 25.5152 77.6891C23.2657 70.9338 22.9593 61.1573 23.9047 50.5003ZM32.5758 58.9156C35.3862 61.7335 38.0695 64.517 40.6197 67.2654C37.2654 66.0389 33.7003 64.3036 32.8453 62.7524C32.6644 62.2402 32.5916 60.7381 32.5758 58.9156Z" fill="#EF7F1A"/>
<path fill-rule="evenodd" clip-rule="evenodd" d="M75.8512 122.496C64.1093 114.451 43.7431 102.152 33.056 96.5032C36.657 103.22 40.3551 106.93 46.6115 114.678C59.6208 130.801 67.0335 136.572 79.5297 151.641C79.8353 150.556 80.0959 149.442 80.3233 148.303C80.013 139.472 78.5425 130.933 75.8512 122.496Z" fill="#D06723"/>
<path fill-rule="evenodd" clip-rule="evenodd" d="M3.05011 191.655C1.90784 192.079 0.629197 191.478 0.21977 190.336C-0.204074 189.193 0.396816 187.915 1.53898 187.505C14.0454 182.958 29.4574 179.312 46.8067 176.878C63.492 174.54 81.9856 173.296 101.42 173.444C102.228 173.451 103.035 173.457 103.842 173.477C109.493 166.109 118.645 155.221 131.132 145.57C124.134 153.879 116.892 163.816 113.774 173.74C128.693 174.301 142.899 175.678 155.975 177.724C173.285 180.422 188.64 184.303 201.076 189.04C202.211 189.481 202.793 190.754 202.352 191.89C201.91 193.026 200.637 193.607 199.501 193.166C187.382 188.546 172.329 184.755 155.293 182.102C138.876 179.54 120.619 178.046 101.372 177.899C82.1247 177.753 63.8475 178.969 47.3931 181.28C30.347 183.673 15.2384 187.235 3.05011 191.655ZM189.382 103.984C187.797 105.645 186.564 106.688 185.181 108.408C179.024 116.06 185.569 112.318 167.547 117.89L169.704 113.076C170.76 110.72 171.933 109.965 173.736 107.945C174.58 107.015 181.602 97.5233 181.674 97.4806C182.007 97.2957 184.462 96.7665 186.669 96.6247C189.583 96.4451 192.254 95.9896 194.98 95.8662C194.55 99.381 191.873 102.489 189.382 103.984ZM129.102 141.445C121.802 147.733 118.957 153.984 115.566 158.11C117.978 144.258 121.186 128.235 126.58 116.684C131.08 107.029 138.504 101.564 148.541 97.5454C170.784 88.6169 215.817 86.0908 222.428 85.1463C218.526 103.312 205.524 133.189 193.182 142.582C177.592 154.445 174.452 154.075 161.403 157.984C144.943 162.919 137.168 163.379 121.562 167.831C122.963 163.703 125.287 159.54 128.072 155.524C131.425 150.69 144.611 134.585 150.004 132.506C152.231 131.644 160.766 131.781 163.459 132.234C168.369 133.079 173.4 135.107 178.573 135.55C180.475 135.709 182.393 135.651 184.328 135.248C185.483 135.011 186.639 134.631 187.811 134.106C188.086 133.935 187.586 133.441 187.167 133.482C186.907 133.508 186.286 133.633 184.035 133.991C182.418 134.238 180.326 134.395 178.697 134.383C172.209 134.334 171.692 132.138 163.61 131.298C160.714 131.002 156.837 130.871 151.37 131.089C153.771 128.325 156.298 125.864 159.546 125.327C163.704 124.623 167.701 124.264 171.992 124.989C178.529 126.091 181.345 127.482 183.701 128.596C186.229 129.798 188.241 130.664 193.764 130.518C192.134 134.457 183.631 139.698 180.598 142.183C179.757 142.869 179.266 142.923 179.178 143.139C179.031 143.44 178.956 143.872 179.269 144.408C179.948 144.226 180.671 143.943 181.409 143.588C187.661 140.536 195.544 131.584 199.245 126.552C204.096 120 207.783 112.977 211.644 105.826C213.31 102.869 216.722 92.1245 216.981 90.3963C212.752 90.9408 210.374 92.7106 206.721 93.3748L186.799 94.7802C181.62 95.1444 178.254 95.9551 172.983 97.0539C158.079 102.189 154.111 100.659 140.003 112.951C136.273 116.196 131.92 121.656 129.005 125.844C127.999 127.292 124.801 132.502 123.456 136.875C122.702 139.349 122.527 141.539 123.686 142.629C124.361 141.149 124.12 138.653 124.855 136.784C126.061 133.679 127.904 130.276 130.164 126.905C135.633 118.757 143.495 110.714 150.5 107.134C148.348 111.414 144.827 123.21 145.294 128.131C145.347 128.751 145.473 129.271 145.672 129.647C145.92 129.274 146.14 128.815 146.345 128.297C148.683 122.375 148.606 107.927 153.731 105.068C157.916 102.735 174.813 97.2409 180.086 97.7569C178.702 99.6207 177.184 102.075 175.756 104.053C174.867 105.287 173.807 106.273 172.847 107.362C171.814 108.536 169.587 111.288 168.842 112.666C167.642 114.906 166.971 117.857 165.347 118.984C163.405 120.338 160.978 120.926 156.237 124.48C147.086 131.374 137.563 134.156 129.102 141.445ZM202.275 118.659C201.985 118.816 200.946 118.981 199.78 118.799C199.247 118.708 198.784 118.95 198.434 119.38L201.34 120.31C200.131 121.858 196.161 128.158 195.161 128.9C191.855 131.326 186.99 128.347 184.101 127.201C178.926 125.157 175.632 124.137 172.059 123.764C168.731 123.421 165.153 123.639 159.584 124.13C162.271 121.613 170.661 117.972 174.661 117.223C180.927 116.046 185.15 118.183 190.706 119.335C192.132 119.635 192.476 119.825 192.505 119.796C192.636 119.696 192.884 119.338 192.771 118.976C192.169 118.51 191.552 118.16 190.934 117.881C187.744 116.458 184.408 117.125 181.55 115.647C183.383 113.57 192.56 110.67 195.861 108.907C197.786 107.956 200.99 105.644 203.979 103.202C206.257 101.345 208.405 99.4 209.772 97.9398C210.295 97.367 210.717 96.88 210.98 96.4783C210.374 96.4449 209.68 96.6847 208.985 97.0831C206.799 98.3353 204.398 101.143 203.193 102.273C201 104.332 198.546 106.621 194.959 108.035L183.922 112.81C184.438 111.3 185.76 110.027 186.678 108.722C187.902 106.986 188.56 105.881 190.413 104.828C191.373 103.826 193.042 102.282 193.931 101.078C195.271 99.2711 195.325 97.9018 196.781 96.0385C204.171 95.0423 208.528 94.6429 214.978 92.0824C214.778 93.7966 211.221 102.637 210.236 105.08C209.693 106.403 203.086 118.204 202.275 118.659Z" fill="url(#paint0_linear)"/>
<defs>
<linearGradient id="paint0_linear" x1="140.157" y1="170.364" x2="121.357" y2="79.8399" gradientUnits="userSpaceOnUse">
<stop stop-color="#865513"/>
<stop offset="0.2588" stop-color="#C2923D"/>
<stop offset="0.4392" stop-color="#FFF8AD"/>
<stop offset="1" stop-color="#AA681A"/>
</linearGradient>
</defs>
</svg>
