<svg width="192" height="218" viewBox="0 0 192 218" fill="none" xmlns="http://www.w3.org/2000/svg">
<path d="M64.8271 173.456L70.0645 161.623L72.9751 159.072C73.9867 158.303 74.9997 157.52 76.0273 156.726C88.7111 146.934 102.508 135.511 111.158 124.24C118.982 114.048 120.692 103.073 119.415 90.0899C116.574 61.3264 94.2182 11.7421 91.5513 4.14953C74.295 18.427 49.5651 48.9723 46.3954 67.4061C42.3852 90.6876 44.5235 93.8437 47.6012 109.974C51.2019 128.817 54.8735 137.546 58.3718 153.991L59.2392 158.079L59.504 161.298C60.3098 162.859 60.8733 164.124 61.3371 165.26C62.4113 167.88 62.9758 169.869 64.8271 173.456Z" fill="#FEFEFE"/>
<path d="M64.8271 173.456C69.1531 164.36 76.5591 147.655 79.9934 127.406C75.1308 139.539 68.5686 152.95 59.5138 161.304C62.166 166.45 62.17 168.307 64.8271 173.456ZM89.782 49.9844C88.8952 52.5972 88.4586 54.5048 87.3898 56.9434C85.1426 62.0655 84.0352 62.7447 83.9253 64.3867C83.7934 66.2251 84.9073 69.2717 87.0609 81.0884C88.7013 77.5951 91.9454 75.8299 93.7764 69.9744C95.3357 64.982 99.9971 57.9778 101.086 54.3935C101.118 54.0842 100.179 51.0812 99.1648 48.8014C97.735 45.5922 96.7361 42.4658 95.35 39.4815C91.8216 41.8909 89.9877 46.4946 89.782 49.9844ZM83.2689 135.316C80.6036 146.627 75.5013 153.141 72.9702 159.069C86.4468 148.78 101.804 136.423 111.153 124.237C118.977 114.045 120.687 103.07 119.41 90.0867C116.574 61.3264 94.2133 11.7389 91.5513 4.14953C74.295 18.427 49.5651 48.9723 46.3954 67.4061C42.3852 90.6876 44.5235 93.8437 47.6012 109.974C51.489 130.323 55.3123 138.905 59.2441 158.082C62.8744 154.292 66.0407 149.485 68.7803 144.275C72.0831 137.991 81.9625 114.927 81.1963 107.998C80.8806 105.139 75.994 96.0863 73.9931 93.4547C68.9958 86.8788 61.5334 81.527 59.1183 72.6583C58.755 71.3344 58.5248 69.9353 58.4341 68.451C59.0391 68.3518 59.322 68.5002 59.4471 68.5672C59.6249 68.8019 59.7744 69.7625 60.6661 72.4262C61.2945 74.2942 62.3026 76.6051 63.2285 78.35C68.2142 87.7482 71.2913 83.1222 81.9716 105.742C83.5897 101.644 84.8125 97.5709 83.5879 93.7855C82.0181 88.9406 80.1915 84.47 77.0269 80.2762C67.0428 67.054 64.6352 71.6437 58.9746 60.0595C55.6616 63.999 54.8009 76.0027 53.8155 80.6299C53.5302 81.9686 53.6811 82.3965 53.6011 82.6606C53.4578 82.8274 53.0845 83.1541 52.176 83.2882C50.8159 77.3295 53.971 66.7576 57.1956 58.6882C61.6175 47.6246 68.7592 36.9906 75.4094 27.1685C77.6421 23.7362 87.2396 14.1119 88.9397 12.8762C90.7054 17.7005 90.1406 21.2243 91.4631 25.5085L100.999 47.4561C103.528 53.2807 104.531 57.2878 106.321 63.6447C109.131 82.452 112.979 85.8396 107.673 107.775C105.415 117.103 98.1419 132.553 90.9678 139.22C88.8844 141.155 86.7718 142.334 85.0124 141.734C86.2298 140.192 89.0163 139.057 90.6207 137.232C99.6898 126.928 108.148 106.707 108.064 93.2899C105.178 97.2958 96.9687 105.419 91.1963 109.09C89.3548 110.263 87.7576 110.982 86.6692 110.972C87.2731 109.889 88.3921 108.704 89.8191 107.446C96.0941 101.916 106.184 96.4594 108.466 88.6635C108.626 82.8832 105.114 61.7595 101.613 56.4065C100.392 58.9288 98.6091 61.9157 97.2911 64.5438C96.3188 66.4762 95.8379 68.4955 95.0088 70.3804C93.7382 73.2709 87.2124 83.237 87.1188 83.9768C86.7497 86.8199 87.4811 89.7308 86.3091 96.7789C84.0304 110.482 86.3559 122.207 83.2689 135.316ZM67.0675 44.2986C66.9845 45.2278 67.5006 46.2295 68.4369 47.6442C68.8268 48.2341 68.3069 49.1117 67.7883 48.9369L65.6579 46.2775C64.6802 48.424 60.1411 56.1816 59.9051 57.6717C59.9418 60.3005 65.0452 66.0956 67.874 68.555C77.6624 77.0441 79.4783 80.1667 84.819 93.0672C86.0066 88.7887 85.2378 77.7927 83.8186 73.0946C83.1977 71.0419 82.4388 69.321 81.5713 67.7894C79.3296 63.829 76.3852 61.1473 73.263 57.3321C72.5591 56.4684 71.2794 54.5221 71.2267 54.2351C71.1616 53.8699 71.2327 53.1647 72.0869 52.9953C74.7798 57.2344 77.8886 61.406 81.6711 64.8419C82.8718 61.7234 80.8703 50.3002 80.9208 45.7829C80.8646 43.1625 81.5764 38.3508 82.5473 33.7352C83.1191 31.0234 83.7767 28.3744 84.42 26.2778C84.9034 24.7094 85.3743 23.4419 85.7978 22.6914C86.3305 23.5915 86.3559 24.9492 86.1298 26.4456C85.7066 29.2747 84.3925 32.6005 83.9332 34.2617C82.9611 37.7531 81.8766 41.6561 82.3422 46.2763L83.3723 60.735C84.6996 59.3487 85.3261 57.2131 86.2097 55.5041C87.3933 53.2242 88.2084 51.913 88.2918 49.3481C88.829 47.7725 89.5567 45.1127 90.3515 43.4865C91.5413 41.0561 92.9672 40.2324 94.168 37.6336C91.1289 29.1748 89.1224 24.2996 88.2747 15.9699C86.5575 17.1453 79.0843 25.8651 77.0135 28.2789C72.8381 33.1477 70.3117 39.0577 67.0675 44.2986Z" fill="#AE5A25"/>
<path d="M57.7392 42.5252C58.7241 45.4459 59.6543 48.3101 60.5317 51.126C64.7798 42.7233 70.2282 34.6355 75.3706 27.0304C77.5984 23.595 87.2008 13.9739 88.9009 12.7381L88.9177 12.7771L91.5534 4.14332L91.5043 4.01321C80.8168 12.8604 67.259 27.9423 57.7392 42.5252ZM61.4281 54.0315C62.5812 57.8407 63.6366 61.5514 64.5946 65.1849C65.7466 66.4727 66.9084 67.6263 67.832 68.4219C77.6203 76.9109 79.4412 80.0368 84.777 92.934C85.9646 88.6556 85.1958 77.6596 83.7765 72.9615C83.1556 70.9088 82.3968 69.1879 81.5292 67.6563C79.2876 63.6959 76.3431 61.0142 73.2209 57.1989C72.5171 56.3353 71.2374 54.3889 71.1847 54.102C71.1196 53.7368 71.1907 53.0316 72.0448 52.8622C74.7378 57.1012 77.8466 61.2729 81.6291 64.7087C82.8297 61.5903 80.8283 50.1671 80.8787 45.6498C80.8226 43.0294 81.5344 38.2177 82.5053 33.602C83.0771 30.8903 83.7346 28.2412 84.378 26.1447C84.8614 24.5763 85.3323 23.3088 85.7558 22.5583C85.7958 22.6264 85.8377 22.7027 85.8713 22.7807L87.9156 16.0875C85.7458 17.9175 78.9328 25.8576 76.9715 28.1458C72.7911 33.0113 70.2679 38.9164 67.0255 44.1655C66.9425 45.0947 67.4585 46.0964 68.3949 47.5111C68.7847 48.101 68.2648 48.9786 67.7462 48.8038L65.6159 46.1443C64.9846 47.5185 62.9067 51.1775 61.4281 54.0315ZM65.5145 68.7798C66.971 74.6114 68.1566 80.2111 69.0733 85.6084C72.023 88.4552 75.6742 92.3535 81.9279 105.6C83.5459 101.503 84.7687 97.4296 83.5441 93.6442C81.9743 88.7994 80.1477 84.3288 76.9831 80.135C71.4468 72.8093 68.24 70.9545 65.5145 68.7798ZM69.488 88.1524C73.5676 114.335 71.1022 135.732 61.4686 155.374C64.1687 152.076 66.5826 148.235 68.7333 144.139C72.0329 137.859 81.9155 114.791 81.1493 107.862C80.8336 105.003 75.947 95.95 73.9461 93.3184C72.5917 91.5413 71.0554 89.8499 69.488 88.1524Z" fill="#975026"/>
<path fill-rule="evenodd" clip-rule="evenodd" d="M102.084 30.3945L97.3604 39.0434L100.953 47.3204C103.481 53.1449 104.485 57.1521 106.275 63.5089C106.925 67.8343 107.626 71.3437 108.25 74.452L114.935 68.128C111.436 55.4313 106.529 41.8504 102.084 30.3945ZM96.137 41.2765L84.035 63.4254C83.9469 63.6912 83.8963 63.9533 83.8739 64.2477C83.7452 66.0812 84.8559 69.1327 87.0095 80.9494C88.6499 77.4561 91.894 75.6909 93.725 69.8355C95.2843 64.8431 99.9457 57.8389 101.034 54.2545C101.066 53.9452 100.128 50.9422 99.1134 48.6624C97.9882 46.1422 97.1282 43.6677 96.137 41.2765ZM86.4973 95.0469L106.978 75.6562C105.66 67.955 103.603 59.4102 101.555 56.2775C100.334 58.7997 98.5513 61.7866 97.2333 64.4147C96.261 66.3471 95.7801 68.3665 94.951 70.2513C93.6804 73.1419 87.1545 83.1079 87.061 83.8477C86.72 86.4633 87.3129 89.1439 86.4973 95.0469Z" fill="#D06723"/>
<path fill-rule="evenodd" clip-rule="evenodd" d="M102.084 30.3945L97.3604 39.0434L91.4297 25.3742C90.1139 21.1013 90.6673 17.5842 88.9183 12.7776L91.5539 4.1438C92.7214 7.42171 97.1106 17.5775 102.084 30.3945ZM96.137 41.2764L84.035 63.4253C84.4249 62.2176 85.5044 61.0078 87.3434 56.8076C88.4122 54.369 88.8488 52.4613 89.7356 49.8486C89.9413 46.3588 91.7751 41.755 95.2986 39.3424C95.5927 39.9826 95.8706 40.6261 96.137 41.2764ZM85.8669 22.778L87.9112 16.0848C88.034 15.9819 88.136 15.9005 88.2251 15.839C89.0727 24.1687 91.0842 29.0471 94.1183 37.5027C92.9257 40.0998 91.4916 40.9252 90.3018 43.3556C89.5071 44.9818 88.7794 47.6416 88.2421 49.2172C88.1587 51.7821 87.3436 53.0933 86.16 55.3732C85.2732 57.0872 84.6499 59.2178 83.3227 60.6041L82.2957 46.1405C81.827 41.5252 82.9115 37.6222 83.8867 34.1259C84.3542 32.463 85.6601 29.1389 86.0834 26.3098C86.2931 24.9361 86.2885 23.6763 85.8669 22.778Z" fill="#EF7F1A"/>
<path fill-rule="evenodd" clip-rule="evenodd" d="M57.7397 42.5256C58.7246 45.4463 59.6549 48.3105 60.5322 51.1264C59.2952 53.5753 58.1583 56.054 57.1573 58.5506C53.9359 66.615 50.7776 77.1919 52.1377 83.1506C53.0462 83.0165 53.4195 82.6898 53.5628 82.5229C53.6428 82.2588 53.4951 81.826 53.7772 80.4923C54.7626 75.865 55.6233 63.8613 58.9363 59.9219C61.4563 65.088 63.3325 67.0349 65.5199 68.7834C66.9765 74.615 68.1621 80.2148 69.0787 85.612C66.9926 83.5992 65.253 82.113 63.1919 78.2206C62.2661 76.4756 61.2579 74.1647 60.6295 72.2968C59.7328 69.6298 59.5915 68.6675 59.4105 68.4378C59.2773 68.3724 59.0025 68.2223 58.3975 68.3215C58.4801 69.8075 58.7185 71.2049 59.0817 72.5288C60.8405 78.9988 65.2832 83.5931 69.4984 88.1592C71.9321 103.767 72.0384 117.668 69.6916 130.513C63.1189 117.888 50.9351 97.4463 44.1685 87.4269C44.158 82.4839 44.7855 76.4379 46.362 67.2717C47.5572 60.2527 51.889 51.4829 57.7397 42.5256ZM61.4287 54.0319C62.5817 57.8411 63.6388 61.56 64.5951 65.1854C62.2131 62.5242 59.8845 59.315 59.8604 57.5439C59.9418 57.0069 60.5847 55.6473 61.4287 54.0319Z" fill="#EF7F1A"/>
<path fill-rule="evenodd" clip-rule="evenodd" d="M69.6799 130.499C63.1073 117.874 50.9285 97.4351 44.1586 87.4207C44.1737 95.042 45.6901 100.056 47.5628 109.837C51.4507 130.186 55.274 138.767 59.2058 157.944C59.9864 157.13 60.7403 156.271 61.4773 155.373C65.3604 147.435 68.0829 139.209 69.6799 130.499Z" fill="#D06723"/>
<path d="M126.694 63.5295C127.955 72.5915 129.802 89.0874 127.242 107.566C126.351 95.7279 124.332 82.3154 118.769 72.6026C122.474 68.8685 122.986 67.2613 126.694 63.5295ZM114.557 177.295C114.503 174.79 114.646 173.023 114.385 170.615C113.84 165.564 113.069 164.673 113.416 163.22C113.807 161.593 115.603 159.26 120.698 149.613C121.165 153.085 123.493 155.5 123.476 161.079C123.464 165.829 125.585 173.169 125.546 176.571C125.489 176.852 123.855 179.193 122.351 180.892C120.236 183.28 118.512 185.715 116.499 187.919C114.107 184.864 113.781 180.377 114.557 177.295ZM132.241 101.607C133.026 91.0818 130.387 84.0399 129.815 78.2169C138.673 90.8173 148.6 105.72 153.367 118.834C157.356 129.803 155.842 139.775 151.181 150.67C140.859 174.805 107.938 211.631 103.559 217.479C92.5152 200.388 79.445 167.168 81.7396 150.335C84.6336 129.075 87.3435 126.924 94.4234 113.799C103.355 97.2373 109.011 90.854 117.658 75.3186C119.768 79.5945 121.196 84.6242 122.143 89.884C123.286 96.2288 125.54 118.909 122.98 124.701C121.924 127.089 115.217 133.594 112.764 135.325C106.638 139.651 98.7128 142.243 94.1952 149.266C93.5207 150.316 92.9332 151.462 92.4542 152.726C92.9513 152.979 93.2341 152.923 93.3651 152.901C93.5845 152.748 93.9739 151.954 95.4764 149.891C96.5334 148.445 98.037 146.718 99.3147 145.458C106.201 138.684 107.601 143.531 123.037 126.865C123.315 130.859 123.265 134.719 121.167 137.663C118.486 141.429 115.679 144.803 111.789 147.567C99.5237 156.284 98.69 151.651 90.626 160.138C88.8346 155.816 91.3714 145.186 91.7819 140.909C91.9023 139.675 92.1478 139.34 92.1512 139.091C92.0716 138.91 91.8391 138.523 91.0903 138.158C88.2823 142.944 88.1265 152.968 88.7123 160.836C89.5146 171.626 92.7995 182.796 95.8737 193.123C96.8674 196.707 102.55 207.666 103.689 209.201C106.537 205.504 107.014 202.298 109.331 198.952L123.577 182.552C127.361 178.196 129.324 175.004 132.611 169.985C140.184 154.464 144.444 152.584 145.847 132.132C146.444 123.437 144.368 108.062 139.973 100.325C138.697 98.0768 137.188 96.4782 135.502 96.5186C136.132 98.1876 138.242 99.9315 139.132 101.954C144.17 113.358 145.967 133.186 142.225 144.787C140.818 140.53 135.928 131.247 131.934 126.483C130.662 124.963 129.474 123.904 128.525 123.615C128.753 124.718 129.397 126.051 130.287 127.528C134.211 134.036 141.46 141.522 141.301 148.896C139.859 153.943 131.043 171.279 126.545 174.96C126.176 172.444 125.45 169.363 125.027 166.731C124.715 164.791 124.847 162.909 124.642 161.049C124.331 158.198 121.405 147.783 121.525 147.113C121.985 144.551 123.415 142.227 124.328 135.805C126.11 123.327 131.33 113.805 132.241 101.607ZM93.3227 176.002C93.5022 175.174 94.2221 174.447 95.4246 173.479C95.9245 173.075 95.7147 172.173 95.2146 172.183L92.6445 173.902C92.3862 171.776 90.5721 163.815 90.7788 162.462C91.5294 160.196 97.5342 156.571 100.658 155.218C111.455 150.546 113.889 148.339 122.033 138.626C121.891 142.656 118.219 151.97 115.703 155.649C114.603 157.257 113.474 158.543 112.307 159.632C109.287 162.45 106 163.964 102.252 166.414C101.406 166.966 99.764 168.304 99.6428 168.537C99.4857 168.837 99.3577 169.467 100.05 169.842C103.542 166.91 107.377 164.147 111.588 162.207C111.779 165.237 106.916 174.582 105.727 178.507C104.959 180.762 104.262 185.124 103.842 189.387C103.593 191.893 103.441 194.367 103.426 196.362C103.416 197.856 103.478 199.08 103.638 199.847C104.343 199.212 104.738 198.042 104.951 196.687C105.359 194.122 105.132 190.883 105.184 189.318C105.294 186.024 105.423 182.35 107.09 178.477L111.937 166.236C112.708 167.801 112.665 169.82 112.968 171.543C113.369 173.843 113.719 175.199 113.09 177.443C113.124 178.952 113.028 181.456 113.272 183.083C113.636 185.512 114.652 186.618 114.975 189.196C110.031 195.689 106.959 199.361 103.946 206.346C102.78 204.859 98.6879 195.263 97.5546 192.606C95.2727 187.239 94.6995 181.433 93.3227 176.002Z" fill="#D1D1D1"/>
</svg>
