<svg width="68" height="74" viewBox="0 0 68 74" fill="none" xmlns="http://www.w3.org/2000/svg">
<path d="M0.000121679 29.7917L5.24121 29.5561L6.65084 28.835C7.09739 28.5694 7.55046 28.2998 8.0055 28.0333C13.6517 24.7042 20.0813 21.1979 25.6446 19.5993C30.6779 18.155 35.0457 19.1126 39.6942 21.4901C49.992 26.7554 65.0045 42.3905 67.4221 44.4966C59.3844 48.8856 44.0998 53.6997 36.7163 52.1961C27.3928 50.2987 26.5481 49.0369 21.0076 45.5252C14.5331 41.4209 11.8504 38.7684 6.25449 35.0522L4.86322 34.1282L3.70328 33.5591C3.24426 33.0291 2.86356 32.6315 2.51018 32.2919C1.70383 31.5118 1.04833 31.0088 0.000121679 29.7917Z" fill="#FEFEFE"/>
<path d="M0.000121679 29.7917C4.07413 29.4975 11.4762 29.1605 19.5768 30.8305C14.2837 30.8816 8.24639 31.3826 3.70526 33.5623C2.19929 31.81 1.50735 31.5388 0.000121679 29.7917ZM50.0259 38.4657C48.9112 38.4182 48.1299 38.3014 47.0539 38.3448C44.7877 38.4376 44.3612 38.757 43.7288 38.559C43.0222 38.3369 42.0616 37.4771 37.9821 34.9428C39.5444 34.835 40.7107 33.8776 43.1865 34.0469C45.2967 34.1907 48.6427 33.4662 50.1488 33.5805C50.27 33.6145 51.2418 34.4051 51.9378 35.1177C52.9128 36.1237 53.9242 36.9558 54.821 37.9093C53.3699 38.8832 51.3644 38.8994 50.0259 38.4657ZM17.1331 28.4436C12.4884 27.7904 9.25572 28.7537 6.6476 28.837C12.6036 25.2849 19.6263 21.3267 25.6446 19.5993C30.6779 18.155 35.0457 19.1126 39.6942 21.4901C49.9888 26.7575 65.0045 42.3905 67.4221 44.4966C59.3844 48.8856 44.0998 53.6997 36.7163 52.1961C27.3928 50.2987 26.5481 49.0369 21.0076 45.5252C14.0177 41.091 11.4112 38.4078 4.86521 34.1314C6.84978 33.3207 9.14058 32.8395 11.515 32.5715C14.3785 32.2508 24.5396 31.9122 27.0107 33.212C28.0272 33.7479 30.6439 36.9039 31.3129 38.0375C32.985 40.874 33.8116 44.4555 36.7483 46.6584C37.1865 46.9885 37.6728 47.2792 38.2135 47.5265C38.3443 47.3148 38.3333 47.1886 38.3282 47.1297C38.2698 47.0292 37.9321 46.8306 37.0759 46.1087C36.4766 45.6012 35.7734 44.8843 35.2634 44.2802C32.5329 41.0365 34.7433 40.5575 27.9717 33.246C29.7551 33.2376 31.4685 33.3712 32.6914 34.3887C34.2553 35.6826 35.6398 37.0236 36.7077 38.823C40.078 44.5016 37.9869 44.7363 41.4284 48.5498C39.4366 49.2186 34.8169 47.786 32.9359 47.479C32.3933 47.3883 32.253 47.273 32.1425 47.2633C32.0611 47.2927 31.879 47.3861 31.6838 47.7052C33.6955 49.0834 38.1402 49.4463 41.6578 49.4163C46.4804 49.3751 51.5755 48.2467 56.2876 47.1882C57.921 46.8533 63.0194 44.6575 63.7459 44.201C62.2219 42.8331 60.816 42.5309 59.4229 41.4084L52.7215 34.6294C50.9406 32.8296 49.6026 31.8674 47.5098 30.2655C40.9263 26.4656 40.2642 24.5241 31.2418 23.3103C27.4041 22.7931 20.4922 23.2675 16.8775 24.9837C15.8272 25.4813 15.0552 26.1043 15.0051 26.8507C15.7735 26.6207 16.6327 25.7382 17.5668 25.4031C22.8385 23.5057 31.7147 23.2899 36.7153 25.2798C34.7671 25.7789 30.4462 27.6723 28.1691 29.2989C27.4412 29.8184 26.9235 30.3111 26.7554 30.724C27.2534 30.6566 27.8746 30.409 28.5655 30.0551C31.6158 28.5105 35.2346 25.5178 38.5022 25.8062C40.6869 26.5908 48.0255 30.9947 49.4738 33.0898C48.3401 33.1788 46.9463 33.4105 45.7579 33.5209C44.8822 33.6014 44.0532 33.4882 43.2183 33.5251C41.9412 33.5808 37.1958 34.5716 36.9017 34.5008C35.7843 34.2243 34.8101 33.524 31.9926 32.9322C26.5305 31.7856 22.5152 29.2016 17.1331 28.4436ZM48.5889 47.82C48.2286 47.7157 47.9353 47.3779 47.5525 46.8174C47.3935 46.5853 46.9863 46.6528 46.9694 46.8721L47.6259 48.0581C46.6689 48.1103 43.0595 48.6824 42.4688 48.5511C41.4934 48.1534 40.1279 45.3932 39.6549 43.971C38.0189 39.0609 37.14 37.9184 33.1593 34.0341C34.9418 34.2128 38.9299 36.1082 40.4617 37.3291C41.1319 37.8628 41.655 38.4009 42.0913 38.9453C43.2204 40.364 43.7581 41.8606 44.6947 43.5879C44.9067 43.9772 45.4325 44.7444 45.5317 44.8013C45.6586 44.8806 45.9325 44.9555 46.1278 44.6584C44.9667 43.0292 43.8958 41.2539 43.2065 39.3342C44.5606 39.3363 48.5123 41.7608 50.2062 42.3995C51.177 42.8045 53.0847 43.2411 54.9625 43.5501C56.0667 43.7329 57.1567 43.8715 58.0415 43.936C58.704 43.9862 59.251 43.9898 59.5983 43.9427C59.3449 43.6107 58.8438 43.4048 58.2491 43.2672C57.1266 43.0116 55.6792 43.02 54.9858 42.9494C53.5284 42.8042 51.9016 42.6422 50.2509 41.7897L45.0124 39.2893C45.739 38.9926 46.6318 39.0698 47.4114 38.988C48.4488 38.8759 49.066 38.7595 50.037 39.1067C50.7078 39.1339 51.8166 39.2517 52.5499 39.1904C53.6424 39.1009 54.1752 38.6831 55.3345 38.6134C58.0173 40.9906 59.5239 42.454 62.5023 43.9912C61.7942 44.4626 57.3649 45.9943 56.1421 46.4194C53.6567 47.2859 51.0571 47.3683 48.5889 47.82Z" fill="#AE5A25"/>
<path d="M47.8067 51.5874C46.8698 50.7932 45.9487 50.0243 45.0351 49.2818C48.8336 48.916 52.7073 48.0543 56.3483 47.2337C57.9802 46.8989 63.0738 44.7034 63.7996 44.247L63.7884 44.2363L67.423 44.5072L67.4659 44.5466C62.4912 47.2658 54.738 50.1469 47.8067 51.5874ZM44.0893 48.5242C42.8496 47.536 41.628 46.5985 40.4257 45.7064C40.1289 45.0871 39.8779 44.483 39.7228 44.0178C38.0884 39.1083 37.2103 37.966 33.2314 34.079C35.0122 34.2576 38.9965 36.1528 40.5269 37.3736C41.1964 37.9072 41.7191 38.4453 42.155 38.9896C43.283 40.4082 43.8202 41.9045 44.7559 43.6316C44.9677 44.0209 45.4931 44.788 45.5922 44.8449C45.7189 44.9242 45.9925 44.999 46.1876 44.702C45.0276 43.073 43.9577 41.2979 43.2691 39.3785C44.6219 39.3805 48.5699 41.8047 50.2622 42.4434C51.2321 42.8484 53.1361 43.2817 55.014 43.5939C56.1172 43.7767 57.2062 43.9152 58.0901 43.9797C58.752 44.03 59.2985 44.0336 59.6454 43.9864C59.6243 43.9599 59.6052 43.9365 59.5808 43.9121L62.3987 44.1245C61.376 44.6718 57.3465 46.0674 56.1827 46.469C53.7128 47.3271 51.1123 47.4115 48.6497 47.8611C48.2897 47.7568 47.9967 47.4191 47.6142 46.8586C47.4554 46.6266 47.0486 46.694 47.0317 46.9134L47.6895 48.1024C47.0781 48.14 45.3873 48.388 44.0893 48.5242ZM39.2269 44.8343C37.277 43.436 35.3747 42.1717 33.5042 41.0381C32.9047 39.5147 32.0194 37.5781 28.0559 33.2953C29.8376 33.2869 31.5514 33.4237 32.7711 34.4379C34.3335 35.7315 35.7168 37.0724 36.7837 38.8715C38.6542 42.0201 38.8439 43.4974 39.2269 44.8343ZM32.6233 40.5145C23.4933 35.158 15.1232 32.9584 6.28567 33.7009C7.93989 33.1699 9.75251 32.8267 11.616 32.6156C14.4767 32.2949 24.6283 31.9564 27.097 33.256C28.1126 33.7918 30.7268 36.9475 31.3952 38.0809C31.8443 38.8565 32.2357 39.6777 32.6233 40.5145Z" fill="#975026"/>
<path fill-rule="evenodd" clip-rule="evenodd" d="M59.1311 36.7485L55.1672 37.2571L52.6451 34.7017C50.8676 32.9023 49.5322 31.9404 47.4434 30.3388C45.9326 29.4661 44.7345 28.6876 43.6741 27.999L47.0797 26.4163C51.2628 29.5848 55.5576 33.4101 59.1311 36.7485ZM54.1456 37.3915L43.9949 38.694C43.8833 38.6895 43.7755 38.6692 43.663 38.6342C42.9578 38.4122 41.999 37.5526 37.9273 35.0189C39.4866 34.9112 40.6507 33.954 43.1218 34.1234C45.228 34.2672 48.5676 33.5429 50.0709 33.6571C50.1918 33.6912 51.1618 34.4816 51.8564 35.194C52.6228 35.985 53.4092 36.6702 54.1456 37.3915ZM32.5962 33.1524L43.0266 28.304C45.6935 29.9243 48.5537 31.9408 49.4024 33.1677C48.2709 33.2566 46.8797 33.4883 45.6935 33.5986C44.8196 33.6791 43.9921 33.5659 43.1588 33.6028C41.8841 33.6584 37.1477 34.649 36.8542 34.5781C35.8278 34.3206 34.9227 33.7064 32.5962 33.1524Z" fill="#D06723"/>
<path fill-rule="evenodd" clip-rule="evenodd" d="M59.2632 36.7837L55.2888 37.2925L59.4665 41.5157C60.8553 42.6373 62.259 42.9415 63.7782 44.3001L67.4189 44.571C66.3825 43.6567 63.2756 40.5258 59.2632 36.7837ZM54.2645 37.4269L44.0869 38.73C44.6005 38.7595 45.2224 38.5339 47.0817 38.456C48.1617 38.4106 48.9437 38.5274 50.056 38.5769C51.3934 39.0075 53.4024 38.9945 54.8566 38.0237C54.6657 37.8206 54.4651 37.6238 54.2645 37.4269ZM59.5674 43.9821L62.3901 44.1946C62.4473 44.1628 62.4948 44.1371 62.5338 44.1123C59.5533 42.575 58.0455 41.1115 55.3608 38.734C54.2005 38.8037 53.6706 39.2195 52.574 39.311C51.8401 39.3724 50.7325 39.2578 50.0593 39.2274C49.0895 38.8833 48.4719 38.9997 47.4317 39.1087C46.6515 39.1905 45.7581 39.1132 45.0309 39.41L50.2733 41.9106C51.9233 42.7601 53.5533 42.9252 55.0117 43.0704C55.7056 43.141 57.1542 43.1327 58.2775 43.3882C58.8247 43.5074 59.2973 43.6961 59.5674 43.9821Z" fill="#EF7F1A"/>
<path fill-rule="evenodd" clip-rule="evenodd" d="M48.0485 51.5872C47.1033 50.792 46.1742 50.0222 45.2525 49.2789C44.1337 49.3838 43.0218 49.4489 41.9226 49.4616C38.3772 49.4913 33.8976 49.1277 31.8701 47.748C32.0648 47.4255 32.2451 47.3341 32.3325 47.3058C32.4439 47.3156 32.5819 47.4329 33.1321 47.5218C35.0279 47.8292 39.6839 49.2635 41.6914 48.5943C40.1471 46.8925 39.71 45.9017 39.3985 44.8273C37.4335 43.4306 35.5125 42.1616 33.6276 41.0298C34.055 42.1067 34.3402 42.98 35.4801 44.3234C35.9921 44.925 36.7008 45.6426 37.3048 46.1506C38.1664 46.8785 38.508 47.072 38.5669 47.1727C38.5721 47.2316 38.5831 47.358 38.4513 47.5698C37.9063 47.3222 37.4175 47.0259 36.9745 46.7007C34.8186 45.0955 33.7902 42.7534 32.7369 40.5024C27.248 37.3047 22.0302 35.2335 16.8249 34.2341C20.5389 38.5498 26.3053 46.1132 29.0061 50.1208C30.8642 50.8474 33.2407 51.4962 36.9387 52.2456C39.7664 52.8191 43.7542 52.4752 48.0485 51.5872ZM44.2984 48.5204C43.0478 47.5311 41.8135 46.5893 40.6026 45.6993C41.2275 46.9806 42.0671 48.3266 42.7315 48.5967C42.9479 48.6425 43.5608 48.5985 44.2984 48.5204Z" fill="#EF7F1A"/>
<path fill-rule="evenodd" clip-rule="evenodd" d="M17.0026 34.1879C20.7255 38.5047 26.5056 46.0702 29.2129 50.0789C26.3391 48.9566 24.6911 47.6549 21.2924 45.5205C14.2306 41.08 11.5975 38.3934 4.98215 34.1079C5.41371 33.9344 5.85533 33.7769 6.31356 33.6311C9.93048 33.331 13.4613 33.5117 17.0026 34.1879Z" fill="#D06723"/>
</svg>
